PathFileType	4	(X/Y/Z)	c:/Users/goper/Files/vsCode/490R/osim_files/C10/C10_SSWS_05.trc
DataRate	CameraRate	NumFrames	NumMarkers	Units                	OrigDataRate	OrigDataStartFrame	OrigNumFrames
250.00	250.00	9	36	mm	250.0	1126	2250
                Frame#	Time	LPSIS			LASIS			LTH1			LTH2			LTH3			LTH4			LLFE			LMFE			LSH1			LSH2			LSH3			LSH4			LLMAL			LMMAL			LCAL			LMTP5			LTOE			LMTP1			RPSIS			RASIS			RTH1			RTH2			RTH3			RTH4			RLFE			RMFE			RSH1			RSH2			RSH3			RSH4			RLMAL			RMMAL			RCAL			RMTP1			RTOE			RMTP5		
		X1	Y1	Z1	X2	Y2	Z2	X3	Y3	Z3	X4	Y4	Z4	X5	Y5	Z5	X6	Y6	Z6	X7	Y7	Z7	X8	Y8	Z8	X9	Y9	Z9	X10	Y10	Z10	X11	Y11	Z11	X12	Y12	Z12	X13	Y13	Z13	X14	Y14	Z14	X15	Y15	Z15	X16	Y16	Z16	X17	Y17	Z17	X18	Y18	Z18	X19	Y19	Z19	X20	Y20	Z20	X21	Y21	Z21	X22	Y22	Z22	X23	Y23	Z23	X24	Y24	Z24	X25	Y25	Z25	X26	Y26	Z26	X27	Y27	Z27	X28	Y28	Z28	X29	Y29	Z29	X30	Y30	Z30	X31	Y31	Z31	X32	Y32	Z32	X33	Y33	Z33	X34	Y34	Z34	X35	Y35	Z35	X36	Y36	Z36

1126	4.50000	-242.76962	1006.39343	253.76677	-382.82837	986.17554	409.00565	-289.87384	766.45825	446.29410	-288.86179	718.55170	440.89819	-349.91898	759.64502	437.82510	-340.32156	714.03772	432.35089	-248.61575	477.68875	360.88879	-254.15303	471.00119	243.71376	-170.25441	408.54282	360.35275	-160.23111	361.73016	359.72473	-229.03018	390.34949	350.69489	-210.86472	348.24847	351.81863	-116.70298	93.27597	298.46768	0.00000	0.00000	0.00000	-42.98176	48.08054	256.03864	-217.06839	29.40379	315.40924	-269.38470	47.39127	250.89624	-230.50011	26.38263	204.64250	-252.66786	996.39471	174.38414	-419.15320	971.14612	77.12429	-403.86862	700.89771	33.18892	-428.13028	663.13568	35.26229	-458.15677	728.15222	31.80260	-475.99799	687.09027	34.00697	-559.81726	484.84213	97.71078	-578.26019	489.38120	212.75409	-534.97223	376.43304	92.39825	-557.88458	339.05344	90.38089	-592.00122	403.38181	92.31725	-605.43652	361.89459	89.69567	-697.66241	107.80555	130.66408	-711.78613	127.46840	209.33304	-673.44574	37.99236	174.30898	-849.43384	119.20605	191.77928	-864.79034	150.47400	152.77306	-825.96973	112.67934	93.90749
1127	4.50400	-248.49719	1005.58093	253.34377	-388.06284	985.23425	408.89322	-294.03467	766.22620	445.99701	-292.91696	718.29041	440.68005	-354.13443	759.07666	437.79233	-344.48566	713.55707	432.42691	-251.45084	477.51553	360.81851	-257.70389	470.53867	243.70572	-172.73108	408.85339	360.01712	-162.30991	362.18692	359.41357	-231.41286	390.26648	350.63129	-212.87584	348.34232	351.80923	-117.10638	93.92220	298.29730	0.00000	0.00000	0.00000	-43.21182	49.08769	255.89954	-217.06343	29.40647	315.36804	-269.45734	47.29892	250.87418	-230.59599	26.32668	204.65779	-258.56924	995.48315	173.84666	-425.14059	970.03784	77.09705	-408.26669	699.94147	33.18513	-432.37640	662.02008	34.73589	-462.72681	727.03412	31.61813	-480.29922	685.91211	33.31632	-565.70398	483.67715	98.77821	-582.52551	487.93881	213.18764	-541.69495	375.20819	92.14133	-565.07336	338.08975	90.24887	-598.40454	402.80911	92.64385	-612.42987	361.38367	90.07500	-707.48230	108.29518	130.98010	-720.70435	128.03267	209.73973	-683.86414	38.00387	174.34694	-858.76971	121.63534	193.25551	-873.77991	153.15802	154.45459	-836.04034	114.78484	95.18474
1128	4.50800	-254.21901	1004.78552	252.90169	-393.38504	984.28076	408.79559	-298.41006	765.92987	445.71133	-297.03360	717.97638	440.47366	-358.51410	758.49854	437.78171	-348.50659	713.00244	432.50317	-254.46378	477.36075	360.78775	-261.32016	470.04767	243.71262	-175.34114	409.16312	359.69656	-164.55954	362.57840	359.08572	-233.90198	390.18835	350.62137	-214.97519	348.44586	351.78735	-117.49776	94.51374	298.19003	0.00000	0.00000	0.00000	-43.51104	50.05840	255.77573	-217.04668	29.40396	315.33655	-269.57617	47.18554	250.86234	-230.64444	26.28036	204.69270	-264.46246	994.64594	173.31787	-431.20398	968.82983	77.07078	-412.79028	699.11115	33.20916	-436.80038	661.17194	34.27662	-467.33676	726.04193	31.43232	-484.78448	684.95776	32.60248	-571.35663	482.56992	98.69054	-586.96039	486.51035	213.67375	-548.29181	373.98001	92.04340	-572.48407	337.07532	89.70513	-604.68280	402.17746	92.97076	-619.01202	361.19669	89.98022	-716.69476	108.65945	131.38748	-729.14185	128.38057	210.21112	-693.50891	37.93908	174.47316	-867.07233	123.51505	194.72661	-882.21191	155.30981	156.09787	-845.45764	116.49182	96.43598
1129	4.51200	-260.02310	1003.99011	252.42912	-398.79971	983.35138	408.66144	-302.84091	765.63251	445.40607	-301.32199	717.62579	440.19556	-362.94125	757.88306	437.73587	-352.38245	711.66138	431.71219	-257.52405	477.19183	360.75931	-264.97351	469.56851	243.71370	-178.01050	409.55585	359.36374	-166.93329	362.97879	358.80173	-236.46089	390.09756	350.60104	-217.23232	348.52118	351.76019	-117.96679	95.24936	298.02127	0.00000	0.00000	0.00000	-43.81709	51.14452	255.59871	-217.03822	29.41475	315.30765	-269.66843	47.08793	250.81349	-230.69603	26.29864	204.67461	-270.40399	993.76471	172.73889	-437.17511	967.79236	76.95544	-417.55911	698.38208	33.24714	-441.51929	660.32483	33.80193	-472.09534	725.20538	31.24106	-489.51447	684.21790	31.93027	-576.98938	481.52017	99.16267	-591.50458	485.20270	214.09396	-554.74286	372.89047	92.03117	-579.04279	336.11450	89.94996	-610.95258	401.53647	93.29826	-625.90479	360.25766	90.71303	-725.91833	108.89239	131.15540	-737.05695	128.49722	210.61554	-702.44647	37.75780	174.70648	-875.24384	124.99188	196.37750	-890.04706	156.97237	157.71439	-854.22791	117.70901	97.73516
1130	4.51600	-265.84924	1003.19073	251.97229	-404.13251	982.43237	408.57907	-307.35190	765.30725	445.10358	-305.65182	717.29340	439.94611	-367.45981	757.30499	437.71310	-356.83542	711.07300	431.69159	0.00000	0.00000	0.00000	-268.75122	469.14038	243.79114	-180.70189	410.01389	359.10861	-169.23450	363.56693	358.60355	-239.14473	390.01651	350.58545	-219.53163	348.55087	351.73618	-118.45153	96.00981	297.91708	0.00000	0.00000	0.00000	-44.18280	52.34840	255.46629	-217.02873	29.40653	315.25391	-269.75510	47.01208	250.79204	-230.71884	26.34401	204.66550	-276.34921	992.90448	172.19048	-443.29352	966.67230	76.88985	-422.57211	697.66565	33.31349	-446.54129	659.62872	33.48263	-477.14359	724.51801	31.08191	-494.49478	683.66522	31.33835	-582.78461	480.58163	99.32189	-596.33392	484.00357	214.47246	-561.41046	371.85144	91.77861	-585.67450	335.24844	90.02833	-617.09369	400.88135	93.60271	-632.39545	359.64630	91.03658	-733.39404	108.64214	132.06555	-744.37701	128.42058	211.07712	-710.58948	37.40792	175.09808	-882.30463	125.97297	197.65823	-897.35107	158.06012	159.23271	-862.30267	118.44971	98.98318
1131	4.52000	-271.68887	1002.38049	251.48262	-409.54721	981.48480	408.50540	-311.99008	764.95587	444.82333	-310.11832	716.97931	439.69632	-372.14899	756.63458	437.68063	-361.24377	710.49780	431.67029	0.00000	0.00000	0.00000	-272.49512	468.72144	243.79959	-183.50967	410.45282	358.89960	-171.65997	364.08154	358.44055	-241.91098	389.88293	350.61420	-221.84120	348.74261	351.81638	-118.92620	96.77032	297.88565	0.00000	0.00000	0.00000	-44.47380	53.57641	255.42375	-217.00375	29.39682	315.22974	-269.85532	46.91040	250.78389	-230.67570	26.43138	204.64261	-282.29944	992.07977	171.62605	-449.23004	965.65674	76.79145	-427.85437	696.96033	33.32457	-451.86334	658.92810	33.29016	-482.37875	723.91852	30.81526	-499.75345	683.04132	30.94129	-588.62805	479.70236	99.53008	-601.34869	482.96774	214.82341	-567.56427	370.83725	92.03812	-591.98254	334.37518	90.28949	-623.22058	400.13547	93.92683	-638.69147	358.93643	91.37000	-740.66437	108.26292	132.67995	-751.16656	128.07050	211.56096	-717.92828	36.89787	175.64804	-888.98163	126.35201	198.96730	-904.08118	158.57855	160.64734	-869.48187	118.80358	100.01995
1132	4.52400	-277.52155	1001.64581	250.95483	-415.01761	980.59277	408.39926	-316.78363	764.61957	444.53320	-314.83008	716.60724	438.60715	-376.94229	756.03107	437.60599	-365.80566	709.92889	431.61429	0.00000	0.00000	0.00000	-276.34204	468.30573	243.85281	-186.41721	410.92508	358.72211	-174.19049	364.66589	358.28378	-244.74854	389.81302	350.63333	-224.23332	348.78482	351.87808	-119.45529	97.55621	297.89853	0.00000	0.00000	0.00000	-44.85991	54.71478	255.60353	-217.01027	29.42150	315.20853	-269.92789	46.83286	250.76752	-230.76952	26.50909	204.72591	-288.23410	991.27307	171.06857	-455.25455	964.59845	76.72149	-434.09802	696.17377	33.19671	-457.55817	658.23779	33.16080	-487.92737	723.35254	30.64213	-505.33649	682.49078	30.71855	-594.60516	478.92599	99.73422	-606.79486	482.13290	215.10301	-573.56677	369.96713	92.30048	-598.08112	333.53949	90.62004	-629.27148	399.35629	94.21229	-644.81360	358.15744	91.68558	-747.24011	107.55266	133.33774	-757.43140	127.44334	212.03630	-724.53009	36.17638	176.28712	-895.14893	126.23788	200.29915	-910.29614	158.54123	161.86406	-876.20227	118.41534	101.14593
1133	4.52800	-283.47351	1000.85339	250.48434	-420.53778	979.71814	408.32556	-321.65677	764.28497	444.25220	-319.59146	716.20416	438.30630	-381.83420	755.38739	437.51889	-370.55765	709.38837	431.49442	0.00000	0.00000	0.00000	-280.26834	467.90912	243.91840	-189.43860	411.39062	358.58554	-176.88373	365.13400	358.13486	-247.72124	389.69427	350.64069	-226.82849	348.93454	351.91446	-120.01987	98.42155	297.89166	0.00000	0.00000	0.00000	-45.16759	56.09657	255.56018	-217.02429	29.43602	315.15201	-269.98987	46.76786	250.72401	-230.78424	26.62700	204.78242	-294.19305	990.44659	170.53778	-461.21017	963.63904	76.55692	-439.74536	695.37225	33.14654	-463.52823	657.52216	33.23393	-493.69183	722.72198	30.51529	-511.28055	681.95807	30.63936	-600.59399	478.23599	99.89974	-612.52368	481.45236	215.29985	-579.51581	369.07715	92.66056	-604.02106	332.66263	90.96532	-635.12701	398.46619	94.47695	-650.73163	357.29663	92.00166	-753.12946	106.59283	134.04042	-763.13184	126.62907	212.56984	-730.26898	35.28838	177.10271	-900.72717	125.70744	201.54263	-915.92950	157.88869	163.01143	-882.23730	117.47450	102.22540
1134	4.53200	-289.41476	1000.14960	249.90489	-426.11093	978.85278	408.23294	-326.64145	763.95526	443.97690	-324.44968	715.83966	438.08984	-386.89679	754.76691	437.40076	-375.44067	708.88672	431.39011	0.00000	0.00000	0.00000	-284.24500	467.45657	243.98918	-192.53651	411.81516	358.46695	-179.66737	365.62070	358.02673	-250.79158	389.57166	350.68915	-229.50345	349.14374	352.00656	-120.61703	99.31973	298.01013	0.00000	0.00000	0.00000	-45.57009	57.59167	255.64360	-217.05632	29.46859	315.11871	-270.07620	46.71713	250.68983	-230.84729	26.71545	204.85094	-300.11615	989.68066	169.98645	-467.22626	962.68921	76.40801	-445.63440	694.55762	33.09566	-469.79004	656.78961	33.37315	-499.65729	722.10059	30.29010	-517.45288	681.42059	30.69201	-606.79559	477.57120	100.14922	-618.55298	481.00772	215.40253	-585.26172	368.23889	93.04399	-609.73322	331.75232	91.38881	-641.05902	397.50320	94.73093	-656.48328	356.33737	92.33482	-758.47131	105.36138	134.84756	-768.35376	125.55746	213.15588	-735.06189	34.30528	178.19629	-905.72388	124.57993	202.49432	-921.04108	156.87700	163.83786	-888.01825	115.45032	103.67303
